<?xml version="1.0" standalone="no"?>
<!DOCTYPE svg PUBLIC "-//W3C//DTD SVG 20010904//EN"
 "http://www.w3.org/TR/2001/REC-SVG-20010904/DTD/svg10.dtd">
<svg version="1.0" xmlns="http://www.w3.org/2000/svg"
 width="1280.000000pt" height="1259.000000pt" viewBox="0 0 1280.000000 1259.000000"
 preserveAspectRatio="xMidYMid meet">
<g transform="translate(0.000000,1259.000000) scale(0.100000,-0.100000)"
fill="#000000" stroke="none">
<path d="M5205 12555 c-86 -24 -132 -32 -162 -28 -67 8 -111 -5 -156 -46 -25
-22 -90 -59 -162 -91 -84 -37 -170 -87 -285 -166 -91 -62 -175 -123 -186 -136
-27 -29 -1515 -2252 -1538 -2295 -22 -44 -21 -120 3 -159 11 -18 34 -43 53
-57 18 -13 584 -359 1257 -768 1188 -721 1226 -743 1280 -746 109 -7 63 -67
776 1017 352 536 647 975 655 975 15 0 653 -1113 646 -1129 -2 -6 -225 -137
-496 -291 -369 -210 -499 -289 -519 -314 -22 -29 -26 -45 -26 -100 0 -78 24
-120 85 -151 41 -21 -112 -13 2532 -136 434 -20 804 -33 824 -29 22 4 51 21
74 43 31 30 837 1443 1670 2925 41 73 52 121 39 170 -13 49 -61 103 -106 118
-78 25 -93 18 -628 -286 -426 -242 -509 -286 -519 -274 -8 8 -201 345 -430
749 l-416 735 -93 91 c-71 69 -114 102 -187 141 -131 71 -221 92 -439 103
-207 11 -388 19 -1901 90 -239 11 -532 25 -650 30 -222 11 -750 39 -830 45
-29 2 -88 -9 -165 -30z"/>
<path d="M3170 8395 c-316 -13 -523 -21 -2218 -85 -589 -22 -812 -34 -835 -44
-42 -17 -89 -71 -106 -122 -12 -38 -11 -44 13 -97 19 -38 39 -63 64 -79 20
-13 253 -140 517 -284 291 -158 481 -267 483 -277 2 -9 -176 -344 -396 -744
-220 -401 -407 -743 -416 -760 -9 -18 -28 -81 -42 -140 -22 -92 -26 -123 -21
-208 10 -203 -30 -122 928 -1861 l864 -1569 96 -95 c55 -54 108 -118 124 -148
31 -57 69 -86 128 -97 20 -4 69 -30 110 -59 94 -68 349 -200 457 -237 95 -33
-2 -27 1275 -79 1691 -68 1581 -65 1626 -45 23 11 53 35 67 54 l27 35 -3 1465
c-2 970 -7 1480 -13 1506 -12 44 -49 89 -94 112 -24 13 -216 22 -1200 53 -643
21 -1172 38 -1174 39 -13 4 40 107 311 596 167 302 310 551 318 553 9 1 234
-118 500 -265 464 -255 488 -267 547 -271 51 -3 68 0 96 17 64 39 92 108 76
182 -9 39 -1547 2832 -1596 2897 -32 42 -74 63 -137 67 -28 2 -197 -3 -376
-10z"/>
<path d="M11315 8391 c-33 -14 -2497 -1381 -2537 -1408 -43 -29 -78 -94 -78
-145 0 -45 7 -58 594 -1202 279 -541 474 -932 469 -937 -5 -5 -289 -8 -659 -7
l-649 3 -5 580 c-5 630 -3 608 -62 662 -65 60 -180 54 -239 -13 -9 -11 -408
-639 -888 -1396 -572 -905 -874 -1391 -880 -1418 -8 -36 -2 -92 11 -116 52
-90 1720 -2872 1740 -2902 20 -29 47 -52 84 -70 50 -24 57 -25 91 -13 52 18
100 56 121 94 15 29 17 85 22 627 l5 595 885 5 885 5 90 28 c159 51 281 128
373 239 35 41 481 734 1012 1572 l950 1500 35 115 c19 64 44 132 55 151 59
107 63 121 46 170 -14 39 -15 53 -4 100 21 92 16 383 -9 530 l-22 125 -608
1219 c-334 671 -621 1235 -637 1253 -16 19 -42 41 -57 49 -30 15 -101 18 -134
5z"/>
</g>
</svg>
